<?xml version="1.0" encoding="UTF-8"?>
<svg id="Layer_2" data-name="Layer 2" xmlns="http://www.w3.org/2000/svg" viewBox="0 0 624.07 552.07">
  <defs>
    <style>
      .cls-1 {
        fill: #101010;
      }
    </style>
  </defs>
  <g id="Layer_1-2" data-name="Layer 1">
    <path class="cls-1" d="M614.29,295.78c-14.94-4.84-59.75,9.6-75.73,15.22-2.22.78-4.56,2.48-6,3-18.39,6.67-35.02,13.51-53,21-16.83,7.01-30.74,14.81-49,18-.68-1.71-2.97-.69-4-1-.49-.68-.96-1.38-1.42-2.09-4.42-7.65-3.82-18.8-11.58-23.91-3.17-2.09-2.68-1.36-6-2-5.52-1.06-7.32-1.29-13,0-4.22.96-7.4,3.24-11,5-11.25,5.49-18.83,12.15-29,19-6.4,4.31-12.67,8.59-19,13-2.94,2.05-6.05,3.91-9,6-6.04,4.28-11.99,8.7-18,13-3.69,2.64-7.33,5.36-11,8-3.5,2.52-6.6,5.53-10,8-3.66,2.66-7.34,5.35-11,8-1.35.98-2.64,2.03-4,3-1.76,1.26-3.34,2.85-5,4-4.45,3.09-9.38,6.14-14,9-3.41,2.12-22.77,11.7-23,13-15.01,5.54-4.48-15.27-2-22,1.23-.76,1.24-.77,2-2,9.82-3.39,18.91-8.09,28-13,2.81-1.52,5.3-3.41,8-5,1.28-.75,2.74-1.23,4-2,11.63-7.09,22.24-14.68,33-23,1.32-1.02,2.68-1.94,4-3,.92-.73,1.45-1.55,2-2,1.7-1.39,3.27-2.51,5-4,3.73-3.21,6.44-5.61,10-9,3.5-3.34,6.68-6.47,10-10,1.25-1.33,2.55-2.37,4-4,1.07-1.2,1.95-2.77,3-4,.74-.87,1.88-1.62,3-3,.75-.92,1.26-2.07,2-3,1.6-2.03,3.43-3.87,5-6,1.41-1.92,2.65-4.03,4-6,3.88-5.65,7.64-10.99,11-17,5.69-10.19,11.87-22.76,15-34,3.74-13.41,6.39-32.13-4-43-.75-.79-.95-1.18-2-2-8.1-6.31-20.42-4.8-29,0-2.74.78-4.53,1.81-7,3-7.25,3.47-12.79,8.14-19,13-1.3,1.02-2.73,1.95-4,3-1.36,1.12-2.11,2.24-3,3-6.41,5.51-11.12,9.92-17,16-.65.68-1.33,1.3-2,2-2.49,2.63-4.6,5.35-7,8-.55.61-1.28,1.19-2,2-1.39,1.56-2.64,3.41-4,5-.49.57-1.27,1.13-2,2-1.67,1.99-3.36,3.99-5,6-.43.53-1.26,1.09-2,2-.75.93-1.26,2.07-2,3-7.05,8.87-13.51,17.73-20,27-5.62,8.02-10.8,15.68-16,24-10.94,17.49-18.07,31.71-27,50-.61,1.24-2.17,4.14-3,5-4.44,4.61-17.77,8.26-24.24,10.26-31.6,9.77-66.65,16.9-99.76,16.74-1.28-1.65-.87-2.97-.35-4.78,2.78-9.59,10.9-19.89,12.35-30.22,7.93-15.08,14.38-30.97,20-47,5.84-10.63,9.66-13.82,18-22,1.67-1.64,3.34-3.39,5-5,3.2-3.09,6.79-5.9,10-9,1.7-1.64,3.33-3.4,5-5,6.62-6.36,13.32-12.7,20-19,1.79-1.69,3.39-3.49,5-5,2.55-2.4,5.44-4.6,8-7,.7-.66,1.33-1.37,2-2,2.9-2.72,6.08-5.29,9-8,.72-.67,1.34-1.39,2-2,4.31-4.01,8.67-8.01,13-12,1.84-1.7,3.41-3.54,5-5,3.64-3.35,7.36-6.65,11-10,4.67-4.3,9.33-8.73,14-13,2.23-2.04,4.77-3.96,7-6,1.85-1.69,3.43-3.58,5-5,1.9-1.72,4.08-3.27,6-5,.79-.71,1.38-1.44,2-2,1.7-1.55,3.96-2.64,5-5,.99-.68,1.79-1.13,3-2,1.96-1.41,3.84-2.8,5-5,1.79-1.24,2.4-1.75,4-3,1.67-1.31,3.37-2.64,5-4,.91-.76,1.34-1.39,2-2,3.36-3.12,5.09-4.67,8-8,1.22-.87,3.28-1.68,5-3,.95-.73,1.54-1.65,2-2,1.68-1.27,3.41-2.62,5-4,.85-.74,1.38-1.44,2-2,1-.91,2.52-1.35,3-3,1.55-.91,1.65-1.01,3-2,2.12-1.55,3.95-3.39,6-5,2.42-1.89,4.63-4.12,7-6,.93-.74,2.07-1.26,3-2,2.03-1.61,4-3.42,6-5,1.3-1.03,2.69-1.98,4-3,3.35-2.62,6.63-5.42,10-8,4.32-3.31,8.64-6.75,13-10,1.33-.99,2.67-2.02,4-3,1.77-1.3,4.06-2.59,6-4,1.73-1.26,3.29-2.78,5-4,.98-.7,2.02-1.31,3-2,4.65-3.26,9.29-6.88,14-10,3.59-2.38,7.33-4.75,11-7,2.05-1.26,4.22-2.97,6-4,6.28-3.64,13.66-6.38,20-10,.92-.53,2.83-.76,3-2,6.12-.76,12.51-4.29,18.6-4.89,9.22-.91,21.44,5.54,17.95-11.17-3.76-17.99-31.57-12.96-43.55-6.94-7.47,2-14.23,5.34-21,9-7.66,4.15-14.76,9.19-22,14-4.01,2.66-8.06,5.22-12,8-3.1,2.19-5.95,4.77-9,7-2.31,1.69-4.7,3.29-7,5-2.66,1.99-5.35,3.99-8,6-.97.73-1.52,1.63-2,2-3.03,2.32-6,4.65-9,7-1.69,1.32-3.33,2.68-5,4-.93.74-2.07,1.26-3,2-2.04,1.62-3.97,3.38-6,5-3.34,2.67-6.68,5.3-10,8-2.02,1.64-3.99,3.36-6,5-.89.73-1.46,1.56-2,2-.92.75-2.08,1.25-3,2-1.33,1.09-2.2,2.34-3,3-1.27,1.05-2.73,1.95-4,3-.89.73-1.46,1.55-2,2-1.27,1.05-2.74,1.95-4,3-.88.73-1.46,1.55-2,2-2.85,2.38-6.1,4.56-9,7-.87.73-1.45,1.54-2,2-1.25,1.06-2.75,1.94-4,3-.86.73-1.44,1.53-2,2-2.34,1.98-4.67,4.01-7,6-.84.72-1.43,1.51-2,2-1.24,1.06-2.76,1.94-4,3-.84.72-1.43,1.51-2,2-1.59,1.37-3.41,2.63-5,4-.84.72-1.43,1.5-2,2-1.23,1.07-2.77,1.93-4,3-.83.72-1.42,1.5-2,2-1.23,1.07-2.77,1.93-4,3-.83.72-1.42,1.49-2,2-2.3,2.01-4.7,3.98-7,6-.81.71-1.41,1.48-2,2-2.29,2.02-4.72,3.98-7,6-1.58,1.4-2.78,2.91-4,4-2.27,2.02-4.74,3.97-7,6-1.91,1.71-3.42,3.58-5,5-2.62,2.36-5.39,4.63-8,7-.78.71-1.39,1.44-2,2-1.54,1.39-3.47,2.61-5,4-1.53,1.39-2.76,2.87-4,4-2.95,2.68-6.05,5.31-9,8-1.53,1.39-2.73,2.83-4,4-2.58,2.38-5.4,4.63-8,7-1.17,1.07-2.07,2.14-3,3-1.87,1.72-3.98,3.43-6,5,.03-2.02,1.9-6.54,3-9l-1.33,2.12c.4-.67.83-1.37,1.33-2.12,2.08-4.65,4.85-9.33,7-14,3.76-8.19,7.17-17.03,11-25,2.41-5.01,5.55-9.93,8-15,1.12-2.31,1.98-4.9,3-7,7.13-14.7,14.8-29.29,22-44,3.4-6.95,6.6-14.06,10-21,3.12-6.36,6.87-12.59,10-19,7.33-15,14.95-29.96,22-45,4.58-7.59,17.6-28.41,18.04-36.53.36-6.55-7.39-19.9-14.47-19.46-5.21.33-11.84,14.51-14.58,18.99-8.4,13.74-15.38,27.87-23,42-15.18,28.12-29.58,56.43-44,85-7.39,14.64-14.76,29.27-22,44-7.37,15-14.83,29.89-22,45-5.69,11.99-11.43,23.94-17,36-6.24,13.51-14.08,36.89-22,48-.33.47-2.05,1.85-3,3-4.06,4.9-8.75,9.25-13,14-.81.9-1.93,1.79-3,3-2.66,3-5.36,5.98-8,9-.52.59-1.28,1.17-2,2-.01,2.26-2.11,3.93-4,5-1.96,2.35-4.08,4.57-6,7-.17,2.19-1.17,3.52-3,4-1.28,1.7-2.75,3.24-4,5l-.35,2.82c-10.96,12.66-23.06,36.04-11.65,51.18,1.44,2.91,3.44,5.58,6,8-4.19,14.35-9.59,27.88-16.21,40.6l-.79.4c-.7,1.69-2.11,3.84-3,6-3.12,10.11-6.81,20.24-11.08,30.39-4.5,11.8-8.72,24.06-1.92,35.61,1.18,1.56,1.4,1.82,3,3,6.91,3.85,15.75,4.98,21-2,4.02-2.28,4.19-6.38.5-12.3,2.55-9.58,5.72-19.15,9.5-28.7,3.68-7.14,7.02-14.47,10-22,3.12-5.23,5.12-10.63,5.99-16.21l1.43-.2c2.4-7.12,5.14-13.71,8.19-19.78.1.06.23.13.39.19l4.45-5.61c5.67.02,12.65,1.7,18.05,1.69,2.1,0,4.06-1.01,6.01-1.08,35.15-1.16,69.68-11.35,103.02-21.86.17.24.32.41.47.55v13.8c0,3.05,3.48,9.7,5,12.5,11.61,21.37,35.75,12.79,52.92,3.42,2.66-1.45,5.09-4.21,7.08-5.42,3.77-2.3,7.91-4.34,12-7,2.41-1.57,4.65-3.41,7-5,3.99-2.69,8.07-5.2,12-8,1.37-.98,2.66-2.02,4-3,.97-.71,2.05-1.28,3-2,1.76-1.33,3.31-2.63,5-4,2.96-2.4,4.05-2.86,7-6,1.04-.64,2.51-1.02,4-2,2.94-1.93,5.27-3.99,8-6,1.55-1.14,2.16-2.32,3-3,2.98-2.4,5.7-4.22,9-7,4.77-3.08,6.47-4.25,11-8,.84-.75,1.69-1.47,2.55-2.16-.84.72-1.68,1.45-2.55,2.16,5.13-3.3,9.98-6.57,15-10,2.72-1.86,5.54-4.35,8-6,9.69-6.5,19.69-12.67,29.51-18.99,2.76,5.31,3.89,11.02,7.49,15.99,9.17,12.66,22.07,13.08,36,10,16.24-3.59,30.22-11.26,45-18,22.47-8.12,44.36-19.21,67-27,10.33-3.55,27.97-9.5,38.46-10.03,9.52-.48,20.41,4.25,28.54-2.97,7.11-6.3,2.58-19.35-6.27-22.22ZM381.66,256.81c-.3,1.55-.66,2.7-1.09,3.19.4-1.03.76-2.1,1.09-3.19ZM347.57,216c-.15.04-.31.02-.48,0h.48ZM246.33,368.33c2.17-5.56,6.06-11.63,10-16,1.7-2.98,3.43-6.18,5-9,3.49-3.91,6.26-8.4,8.79-12.97l1.21-.03c1.25-1.7,2.73-3.28,4-5-.53-1.35.72-2.88,2-3,2.24-3.04,4.74-5.96,7-9,.59-2.18,1.93-4.18,4-6,.82-1.58,1.82-2.58,3-3,2.07-2.31,4.01-4.63,6-7,2.34-4.57,5.67-8.57,10-12,6.22-6.75,14.25-14.83,21-21,1.6-2.6,4-5.28,7-6,5.3-4.57,11.02-9.36,17-13,.43-1.51,2.41-2.41,4-2,2.05,2.18.49,2.88,0,5-.85,9.32-5.11,20.35-10,28-.36.74-1.38,1.82-2,3-.33,2.63-1.52,5.12-3.57,7.47.67,1.26-.47,2.77-3.43,4.53-1.5,2.33-3.4,4.7-5,7-2.04,5.26-6.58,11.4-11,15-.45.54-1.3,1.18-2,2-5.27,8.03-13.05,15.62-21,21-1.46,1.34-2.83,2.97-4,4-1.19,2.79-4.24,4.75-7,6-.9,1.53-2.25,3.49-4,3-3.17,2.51-6.85,5.72-10,8-.19.52-.4,1.02-.74,1.42-.67.82-15.82,11.2-17.34,11.95-.47.23-1.16,0-1.92-.37-1.04.65-2.07,1.44-3,2-.46,1.45-1.79,2.12-4,2-.42.02-1.89,1.31-2,0-1.41-1.14.69-4.73,2-6ZM234.57,336c-.32.5-.63,1.01-.95,1.51.18-.55.48-1.06.95-1.51ZM426.57,40c-.15.04-.32.02-.49,0h.49ZM251.04,2.11c-.41.44-.81.89-1.21,1.34.21-.56.57-1.05,1.21-1.34ZM94.57,442c7.09-.54,14.14-1.29,21.16-2.22-7.06,1.07-14.12,1.86-21.16,2.22ZM210.57,382c.82-2.04,1.44-5.4,2.99-7.09-1.03,2.35-2.03,4.71-2.99,7.09ZM214.62,372.55l-.04-.03c.06-.09.13-.21.21-.33-.05.12-.11.24-.16.37ZM259.57,446c.88-.61,1.76-1.19,2.64-1.75-.87.61-1.74,1.21-2.64,1.75ZM482.2,334.85c3.23-1.43,7.04-3.15,10.58-4.59-3.49,1.5-7.02,3.03-10.58,4.59Z"/>
  </g>
</svg>